<?xml version="1.0" encoding="UTF-8" standalone="no"?>
<!-- Created with Inkscape (http://www.inkscape.org/) -->

<svg
   xmlns:dc="http://purl.org/dc/elements/1.1/"
   xmlns:cc="http://creativecommons.org/ns#"
   xmlns:rdf="http://www.w3.org/1999/02/22-rdf-syntax-ns#"
   xmlns:svg="http://www.w3.org/2000/svg"
   xmlns="http://www.w3.org/2000/svg"
   xmlns:sodipodi="http://sodipodi.sourceforge.net/DTD/sodipodi-0.dtd"
   xmlns:inkscape="http://www.inkscape.org/namespaces/inkscape"
   width="700"
   height="111"
   viewBox="0 0 185.20833 29.368751"
   version="1.1"
   id="svg944"
   inkscape:version="0.92.4 (unknown)"
   sodipodi:docname="logo_completo.svg">
  <defs
     id="defs938" />
  <sodipodi:namedview
     id="base"
     pagecolor="#ffffff"
     bordercolor="#666666"
     borderopacity="1.0"
     inkscape:pageopacity="0.0"
     inkscape:pageshadow="2"
     inkscape:zoom="0.98994949"
     inkscape:cx="315.32133"
     inkscape:cy="42.598846"
     inkscape:document-units="px"
     inkscape:current-layer="g934"
     showgrid="false"
     units="px"
     inkscape:window-width="1366"
     inkscape:window-height="705"
     inkscape:window-x="0"
     inkscape:window-y="30"
     inkscape:window-maximized="1" />
  <metadata
     id="metadata941">
    <rdf:RDF>
      <cc:Work
         rdf:about="">
        <dc:format>image/svg+xml</dc:format>
        <dc:type
           rdf:resource="http://purl.org/dc/dcmitype/StillImage" />
        <dc:title></dc:title>
      </cc:Work>
    </rdf:RDF>
  </metadata>
  <g
     inkscape:label="Layer 1"
     inkscape:groupmode="layer"
     id="layer1"
     transform="translate(0,-267.63123)">
    <g
       transform="matrix(2.5350547,0,0,2.5350547,-112.1049,-58.295976)"
       id="g934"
       inkscape:export-filename="/home/cafe/Downloads/codigocafe.png"
       inkscape:export-xdpi="96"
       inkscape:export-ydpi="96">
      <g
         transform="matrix(1.0710292,0,0,1.0710292,-3.521304,77.985124)"
         id="g1012">
        <g
           id="g957"
           transform="matrix(0.64002883,0,0,0.64002883,16.358314,-32.423219)">
          <path
             sodipodi:nodetypes="zzszsz"
             inkscape:connector-curvature="0"
             id="path953"
             d="m 49.347151,127.28725 c 0.957114,0.0213 1.46847,0.94526 0.916424,2.19469 -0.552045,1.24944 -0.139417,3.67572 0.47013,4.85489 1.012747,1.95914 0.501548,4.82993 -1.255821,5.07481 -1.757369,0.24487 -4.600308,-0.48009 -4.59453,-6.03305 0.0053,-5.06101 3.506683,-6.11267 4.463797,-6.09134 z"
             style="fill:none;stroke:#3c3c3c;stroke-width:1.58749998;stroke-linecap:round;stroke-linejoin:round;stroke-miterlimit:4;stroke-dasharray:none;stroke-opacity:1;paint-order:normal" />
          <path
             sodipodi:nodetypes="ccsc"
             inkscape:connector-curvature="0"
             id="path955"
             d="m 52.57904,130.31259 c 0.725243,-2.05423 0.153937,-2.77157 0.110967,-2.86825 -0.04297,-0.0967 3.07688,1.8948 2.896985,5.90658 -0.179895,4.01179 -2.566362,5.67421 -2.566362,5.67421"
             style="fill:none;stroke:#3c3c3c;stroke-width:1.58749998;stroke-linecap:round;stroke-linejoin:round;stroke-miterlimit:4;stroke-dasharray:none;stroke-opacity:1" />
        </g>
        <g
           id="text961"
           style="font-style:normal;font-variant:normal;font-weight:normal;font-stretch:normal;font-size:11.42908573px;line-height:1.25;font-family:sans-serif;-inkscape-font-specification:'sans-serif, Normal';font-variant-ligatures:normal;font-variant-caps:normal;font-variant-numeric:normal;font-feature-settings:normal;text-align:start;letter-spacing:0px;word-spacing:0px;writing-mode:lr-tb;text-anchor:start;fill:#3c3c3c;fill-opacity:1;stroke:none;stroke-width:0.5291667;stroke-miterlimit:4;stroke-dasharray:none"
           aria-label="codigo">
          <path
             inkscape:connector-curvature="0"
             id="path971"
             style="font-style:normal;font-variant:normal;font-weight:normal;font-stretch:normal;font-family:'Didact Gothic';-inkscape-font-specification:'Didact Gothic';fill:#3c3c3c;fill-opacity:1;stroke-width:0.5291667;stroke-miterlimit:4;stroke-dasharray:none"
             d="m 58.583361,55.922634 q -0.777178,0 -1.382919,-0.36573 -0.605742,-0.365731 -0.948614,-1.017189 -0.342873,-0.651458 -0.342873,-1.474352 0,-0.822894 0.331444,-1.474352 0.342872,-0.651458 0.948614,-1.017189 0.605741,-0.365731 1.37149,-0.365731 0.651458,0 1.131479,0.285728 0.491451,0.274298 0.891469,0.788607 l -0.571454,0.445734 q -0.560025,-0.811465 -1.451494,-0.811465 -0.537167,0 -0.971472,0.274298 -0.422876,0.274298 -0.662887,0.765749 -0.240011,0.49145 -0.240011,1.108621 0,0.617171 0.240011,1.108621 0.240011,0.491451 0.662887,0.765749 0.434305,0.274298 0.971472,0.274298 0.548596,0 0.902898,-0.182865 0.354301,-0.194295 0.640029,-0.560026 l 0.605741,0.422877 q -0.37716,0.468592 -0.937185,0.754319 -0.548596,0.274298 -1.188625,0.274298 z" />
          <path
             inkscape:connector-curvature="0"
             id="path973"
             style="font-style:normal;font-variant:normal;font-weight:normal;font-stretch:normal;font-family:'Didact Gothic';-inkscape-font-specification:'Didact Gothic';fill:#3c3c3c;fill-opacity:1;stroke-width:0.5291667;stroke-miterlimit:4;stroke-dasharray:none"
             d="m 64.041464,55.922634 q -0.765749,0 -1.37149,-0.36573 -0.605742,-0.365731 -0.948614,-1.017189 -0.342873,-0.662887 -0.342873,-1.485781 0,-0.822894 0.331444,-1.462923 0.342872,-0.651458 0.937185,-1.017189 0.605741,-0.365731 1.37149,-0.365731 0.765749,0 1.37149,0.365731 0.605742,0.365731 0.948614,1.017189 0.342873,0.651458 0.342873,1.474352 0,0.822894 -0.342873,1.474352 -0.331443,0.651458 -0.937185,1.017189 -0.594312,0.36573 -1.360061,0.36573 z m -0.02286,-0.708603 q 0.548596,0 0.971472,-0.274298 0.434305,-0.274298 0.674316,-0.765749 0.240011,-0.49145 0.240011,-1.108621 0,-0.617171 -0.240011,-1.108621 -0.240011,-0.491451 -0.674316,-0.765749 -0.422876,-0.274298 -0.971472,-0.274298 -0.537167,0 -0.960043,0.274298 -0.422876,0.274298 -0.662887,0.765749 -0.240011,0.480021 -0.240011,1.097192 0,0.6286 0.240011,1.12005 0.240011,0.491451 0.662887,0.765749 0.422876,0.274298 0.960043,0.274298 z" />
          <path
             inkscape:connector-curvature="0"
             id="path975"
             style="font-style:normal;font-variant:normal;font-weight:normal;font-stretch:normal;font-family:'Didact Gothic';-inkscape-font-specification:'Didact Gothic';fill:#3c3c3c;fill-opacity:1;stroke-width:0.5291667;stroke-miterlimit:4;stroke-dasharray:none"
             d="m 72.753284,47.442253 v 8.297516 h -0.777177 v -0.788607 q -0.331444,0.457163 -0.811465,0.720032 -0.480022,0.25144 -1.051476,0.25144 -0.765749,0 -1.371491,-0.36573 -0.605741,-0.365731 -0.948614,-1.017189 -0.342872,-0.651458 -0.342872,-1.485781 0,-0.822894 0.331443,-1.462923 0.342873,-0.651458 0.937185,-1.017189 0.605742,-0.365731 1.37149,-0.365731 0.582884,0 1.062905,0.262869 0.491451,0.25144 0.822895,0.720033 v -3.74874 z m -2.662977,7.771778 q 0.548597,0 0.971473,-0.274298 0.434305,-0.274298 0.674316,-0.765749 0.240011,-0.49145 0.240011,-1.108621 0,-0.617171 -0.240011,-1.108621 -0.240011,-0.491451 -0.674316,-0.765749 -0.422876,-0.274298 -0.971473,-0.274298 -0.537167,0 -0.960043,0.274298 -0.422876,0.274298 -0.662887,0.765749 -0.240011,0.480021 -0.240011,1.097192 0,0.6286 0.240011,1.12005 0.240011,0.491451 0.662887,0.765749 0.422876,0.274298 0.960043,0.274298 z" />
          <path
             inkscape:connector-curvature="0"
             id="path977"
             style="font-style:normal;font-variant:normal;font-weight:normal;font-stretch:normal;font-family:'Didact Gothic';-inkscape-font-specification:'Didact Gothic';fill:#3c3c3c;fill-opacity:1;stroke-width:0.5291667;stroke-miterlimit:4;stroke-dasharray:none"
             d="m 74.611048,55.739769 v -5.348812 h 0.777178 v 5.348812 z m 0.388589,-6.388859 q -0.262869,0 -0.445734,-0.182865 -0.171436,-0.182866 -0.171436,-0.445735 0,-0.25144 0.171436,-0.422876 0.182865,-0.182865 0.445734,-0.182865 0.25144,0 0.434305,0.182865 0.182866,0.171436 0.182866,0.434305 0,0.25144 -0.182866,0.434306 -0.182865,0.182865 -0.434305,0.182865 z" />
          <path
             inkscape:connector-curvature="0"
             id="path980"
             style="font-style:normal;font-variant:normal;font-weight:normal;font-stretch:normal;font-family:'Didact Gothic';-inkscape-font-specification:'Didact Gothic';fill:#3c3c3c;fill-opacity:1;stroke-width:0.5291667;stroke-miterlimit:4;stroke-dasharray:none"
             d="m 82.217997,50.390957 v 5.143088 q 0,0.720033 -0.297157,1.280058 -0.297156,0.571454 -0.834323,0.891469 -0.537167,0.320014 -1.222912,0.320014 h -2.217243 v -0.708603 h 2.217243 q 0.697174,0 1.131479,-0.50288 0.445735,-0.50288 0.445735,-1.280058 v -0.582883 q -0.331444,0.457163 -0.811465,0.720032 -0.480022,0.25144 -1.051476,0.25144 -0.765749,0 -1.371491,-0.36573 -0.605741,-0.365731 -0.948614,-1.017189 -0.342872,-0.651458 -0.342872,-1.485781 0,-0.822894 0.331443,-1.462923 0.342873,-0.651458 0.937185,-1.017189 0.605742,-0.365731 1.371491,-0.365731 0.582883,0 1.062905,0.262869 0.49145,0.25144 0.822894,0.720033 v -0.800036 z m -2.662977,4.823074 q 0.548596,0 0.971472,-0.274298 0.434305,-0.274298 0.674316,-0.765749 0.240011,-0.49145 0.240011,-1.108621 0,-0.617171 -0.240011,-1.108621 -0.240011,-0.491451 -0.674316,-0.765749 -0.422876,-0.274298 -0.971472,-0.274298 -0.537167,0 -0.960044,0.274298 -0.422876,0.274298 -0.662887,0.765749 -0.24001,0.480021 -0.24001,1.097192 0,0.6286 0.24001,1.12005 0.240011,0.491451 0.662887,0.765749 0.422877,0.274298 0.960044,0.274298 z" />
          <path
             inkscape:connector-curvature="0"
             id="path982"
             style="font-style:normal;font-variant:normal;font-weight:normal;font-stretch:normal;font-family:'Didact Gothic';-inkscape-font-specification:'Didact Gothic';fill:#3c3c3c;fill-opacity:1;stroke-width:0.5291667;stroke-miterlimit:4;stroke-dasharray:none"
             d="m 85.984416,55.922634 q -0.765749,0 -1.371491,-0.36573 -0.605741,-0.365731 -0.948614,-1.017189 -0.342872,-0.662887 -0.342872,-1.485781 0,-0.822894 0.331443,-1.462923 0.342873,-0.651458 0.937185,-1.017189 0.605742,-0.365731 1.371491,-0.365731 0.765748,0 1.37149,0.365731 0.605741,0.365731 0.948614,1.017189 0.342873,0.651458 0.342873,1.474352 0,0.822894 -0.342873,1.474352 -0.331443,0.651458 -0.937185,1.017189 -0.594312,0.36573 -1.360061,0.36573 z m -0.02286,-0.708603 q 0.548596,0 0.971472,-0.274298 0.434305,-0.274298 0.674316,-0.765749 0.240011,-0.49145 0.240011,-1.108621 0,-0.617171 -0.240011,-1.108621 -0.240011,-0.491451 -0.674316,-0.765749 -0.422876,-0.274298 -0.971472,-0.274298 -0.537167,0 -0.960044,0.274298 -0.422876,0.274298 -0.662887,0.765749 -0.24001,0.480021 -0.24001,1.097192 0,0.6286 0.24001,1.12005 0.240011,0.491451 0.662887,0.765749 0.422877,0.274298 0.960044,0.274298 z" />
        </g>
        <g
           id="text965"
           style="font-style:normal;font-variant:normal;font-weight:normal;font-stretch:normal;font-size:11.42908573px;line-height:1.25;font-family:sans-serif;-inkscape-font-specification:'sans-serif, Normal';font-variant-ligatures:normal;font-variant-caps:normal;font-variant-numeric:normal;font-feature-settings:normal;text-align:start;letter-spacing:0px;word-spacing:0px;writing-mode:lr-tb;text-anchor:start;fill:#3c3c3c;fill-opacity:1;stroke:none;stroke-width:0.5291667;stroke-miterlimit:4;stroke-dasharray:none"
           aria-label="cafe">
          <path
             inkscape:connector-curvature="0"
             id="path986"
             style="font-style:normal;font-variant:normal;font-weight:normal;font-stretch:normal;font-family:'Didact Gothic';-inkscape-font-specification:'Didact Gothic';fill:#3c3c3c;fill-opacity:1;stroke-width:0.5291667;stroke-miterlimit:4;stroke-dasharray:none"
             d="m 95.252738,55.922634 q -0.777178,0 -1.38292,-0.36573 -0.605741,-0.365731 -0.948614,-1.017189 -0.342873,-0.651458 -0.342873,-1.474352 0,-0.822894 0.331444,-1.474352 0.342873,-0.651458 0.948614,-1.017189 0.605742,-0.365731 1.37149,-0.365731 0.651458,0 1.13148,0.285728 0.491451,0.274298 0.891469,0.788607 l -0.571455,0.445734 q -0.560025,-0.811465 -1.451494,-0.811465 -0.537167,0 -0.971472,0.274298 -0.422876,0.274298 -0.662887,0.765749 -0.240011,0.49145 -0.240011,1.108621 0,0.617171 0.240011,1.108621 0.240011,0.491451 0.662887,0.765749 0.434305,0.274298 0.971472,0.274298 0.548596,0 0.902898,-0.182865 0.354302,-0.194295 0.640029,-0.560026 l 0.605741,0.422877 q -0.377159,0.468592 -0.937185,0.754319 -0.548596,0.274298 -1.188624,0.274298 z" />
          <path
             inkscape:connector-curvature="0"
             id="path988"
             style="font-style:normal;font-variant:normal;font-weight:normal;font-stretch:normal;font-family:'Didact Gothic';-inkscape-font-specification:'Didact Gothic';fill:#3c3c3c;fill-opacity:1;stroke-width:0.5291667;stroke-miterlimit:4;stroke-dasharray:none"
             d="m 103.35096,50.390957 v 5.348812 h -0.77718 v -0.788607 q -0.33144,0.457163 -0.81146,0.720032 -0.48003,0.25144 -1.05148,0.25144 -0.765748,0 -1.37149,-0.36573 -0.605741,-0.365731 -0.948614,-1.017189 -0.342873,-0.651458 -0.342873,-1.485781 0,-0.822894 0.331444,-1.462923 0.342873,-0.651458 0.937185,-1.017189 0.605742,-0.365731 1.371488,-0.365731 0.58289,0 1.06291,0.262869 0.49145,0.25144 0.82289,0.720033 v -0.800036 z m -2.66298,4.823074 q 0.5486,0 0.97147,-0.274298 0.43431,-0.274298 0.67432,-0.765749 0.24001,-0.49145 0.24001,-1.108621 0,-0.617171 -0.24001,-1.108621 -0.24001,-0.491451 -0.67432,-0.765749 -0.42287,-0.274298 -0.97147,-0.274298 -0.53716,0 -0.960041,0.274298 -0.422876,0.274298 -0.662887,0.765749 -0.240011,0.480021 -0.240011,1.097192 0,0.6286 0.240011,1.12005 0.240011,0.491451 0.662887,0.765749 0.422881,0.274298 0.960041,0.274298 z" />
          <path
             inkscape:connector-curvature="0"
             id="path990"
             style="font-style:normal;font-variant:normal;font-weight:normal;font-stretch:normal;font-family:'Didact Gothic';-inkscape-font-specification:'Didact Gothic';fill:#3c3c3c;fill-opacity:1;stroke-width:0.5291667;stroke-miterlimit:4;stroke-dasharray:none"
             d="m 106.76308,47.956562 q -0.40002,0 -0.66289,0.274298 -0.25144,0.274298 -0.25144,0.708603 v 1.451494 h 1.23434 v 0.708603 h -1.23434 v 4.640209 h -0.77718 V 51.09956 h -0.68574 v -0.708603 h 0.68574 v -1.451494 q 0,-0.742891 0.4686,-1.211483 0.48002,-0.480022 1.22291,-0.480022 h 0.32001 v 0.708604 z" />
          <path
             inkscape:connector-curvature="0"
             id="path992"
             style="font-style:normal;font-variant:normal;font-weight:normal;font-stretch:normal;font-family:'Didact Gothic';-inkscape-font-specification:'Didact Gothic';fill:#3c3c3c;fill-opacity:1;stroke-width:0.5291667;stroke-miterlimit:4;stroke-dasharray:none"
             d="m 110.24198,50.208091 q 0.72004,0 1.30292,0.354302 0.58288,0.354302 0.91433,0.971472 0.33144,0.605742 0.33144,1.360062 0,0.217152 -0.0114,0.331443 h -4.4002 q 0.0457,0.822894 0.53717,1.405778 0.49145,0.582883 1.3372,0.582883 0.68575,0 1.13148,-0.25144 0.45717,-0.262869 0.73146,-0.720032 l 0.61717,0.411447 q -0.37716,0.594312 -0.99433,0.937185 -0.61717,0.331443 -1.46292,0.331443 -0.77718,0 -1.38292,-0.36573 -0.60574,-0.365731 -0.94861,-1.017189 -0.34288,-0.651458 -0.34288,-1.474352 0,-0.822894 0.33145,-1.474352 0.34287,-0.651458 0.93718,-1.017189 0.60574,-0.365731 1.37149,-0.365731 z m 1.77151,2.37725 q -0.11429,-0.834323 -0.56002,-1.24577 -0.44574,-0.422876 -1.21149,-0.422876 -0.74289,0 -1.22291,0.480021 -0.46859,0.468593 -0.59431,1.188625 z" />
        </g>
        <rect
           y="48.527824"
           x="64.020424"
           height="0.65481037"
           width="2.6623688"
           id="rect967"
           style="opacity:1;fill:#3c3c3c;fill-opacity:1;stroke:none;stroke-width:0.33985469;stroke-miterlimit:4;stroke-dasharray:none;stroke-opacity:1" />
        <rect
           style="opacity:1;fill:#3c3c3c;fill-opacity:1;stroke:none;stroke-width:0.33985469;stroke-miterlimit:4;stroke-dasharray:none;stroke-opacity:1"
           id="rect969"
           width="2.6623688"
           height="0.65481037"
           x="110.10532"
           y="48.527824" />
      </g>
    </g>
  </g>
</svg>
